<svg width="441" height="468" viewBox="0 0 441 468" fill="none" xmlns="http://www.w3.org/2000/svg">
<path d="M240.421 383.619C218.239 405.528 196.309 427.189 173.929 449.294C169.895 441.14 166.029 433.324 162.072 425.325C164.279 423.428 166.508 421.723 168.489 419.767C172.905 415.409 174.191 409.934 171.282 404.725C160.985 386.289 148.496 369.684 128.814 360.37C102.76 348.042 78.8373 353.455 57.121 370.85C44.447 381.002 35.5488 393.922 32.6163 410.277C29.2927 428.812 37.2595 445.154 54.4139 453.738C62.0254 457.547 70.2808 460.07 78.4293 463.249C66.5727 466.807 54.3645 468.128 41.9749 466.458C14.57 462.765 0.94327 442.757 0.0508669 415.819C-1.43573 370.945 29.8327 322.77 71.4644 305.843C92.154 297.431 113.301 297.604 134.523 304.029C136.416 304.602 138.301 305.203 140.469 305.878C141.427 304.49 142.396 303.179 143.269 301.808C171.962 256.75 200.604 211.66 229.394 166.665C232.384 161.992 232.486 158.118 229.499 153.385C216.008 132.001 202.743 110.475 189.459 88.9612C180.877 75.0641 167.379 69.578 152.158 75.7777C142.496 79.7132 133.818 86.0652 124.757 91.3C123.453 83.0211 126.377 74.4929 131.136 66.6569C149.454 36.4964 188.234 22.3887 221.6 42.8144C223.003 43.673 224.481 44.4077 226.146 45.3216C238.88 15.8394 260.524 -0.56301 293.07 0.0147639C308.286 0.28489 321.651 5.56131 331.007 19.4645C323.433 20.2494 316.416 20.8825 309.425 21.7187C288.432 24.2292 277.621 35.107 276.968 56.4371C276.614 67.9846 278.608 79.6114 279.705 91.1872C279.853 92.7494 280.867 94.2633 281.616 95.7301C323.956 178.639 366.34 261.525 408.563 344.493C410.366 348.037 412.55 349.807 416.171 349.147C421.618 348.155 426.976 346.673 433.408 345.154C435.498 348.313 438.391 352.687 440.508 355.888C407.008 390.331 374.015 424.253 340.378 458.837C335.951 452.512 332.143 447.336 328.717 441.918C328.14 441.005 328.918 438.902 329.568 437.596C336.774 423.12 342.089 408.159 340.828 391.668C340.557 388.131 339.646 384.386 338.034 381.249C323.288 352.566 308.37 323.97 293.296 295.459C292.466 293.89 289.823 292.403 287.997 292.368C256.504 291.781 225.007 291.393 193.51 291.127C191.88 291.113 189.631 292.155 188.702 293.447C183.85 300.195 179.332 307.182 174.466 314.431C176.046 315.218 177.422 315.999 178.87 316.612C198.001 324.704 217.206 332.626 236.242 340.935C242.299 343.578 247.759 342.984 253.517 340.506C254.879 339.92 257.113 339.805 258.26 340.542C263.277 343.762 268.042 347.375 272.44 350.517C261.694 361.631 251.183 372.501 240.421 383.619ZM230.225 217.937C222.658 229.154 215.09 240.371 207.189 252.082C230.547 252.082 253.052 252.082 276.321 252.082C265.952 232.94 255.887 214.359 245.548 195.273C240.288 203.061 235.463 210.203 230.225 217.937Z" fill="#D90101"/>
</svg>
